<svg width="25" height="26" viewBox="0 0 25 26" fill="none" xmlns="http://www.w3.org/2000/svg">
<path d="M16.2644 6.23798V5.72115C16.2644 3.66602 14.5984 2 12.5433 2H5.72115C3.66602 2 2 3.66602 2 5.72115V13.1635C2 15.2186 3.66601 16.8846 5.72115 16.8846H12.5433C14.5984 16.8846 16.2644 15.2186 16.2644 13.1635V11.5613" stroke="#FF6C37" stroke-width="2.89423"/>
<path d="M9.23438 13.8894V12.7524C9.23438 10.6973 10.9004 9.03125 12.9555 9.03125H19.7776C21.8328 9.03125 23.4988 10.6973 23.4988 12.7524V20.1947C23.4988 22.2498 21.8328 23.9159 19.7776 23.9159H12.9555C10.9004 23.9159 9.23438 22.2498 9.23438 20.1947V19.8846" stroke="#393D50" stroke-width="2.89423"/>
</svg>
